<?xml version="1.0" encoding="UTF-8" standalone="no"?>
<svg
   xmlns:dc="http://purl.org/dc/elements/1.1/"
   xmlns:cc="http://creativecommons.org/ns#"
   xmlns:rdf="http://www.w3.org/1999/02/22-rdf-syntax-ns#"
   xmlns:svg="http://www.w3.org/2000/svg"
   xmlns="http://www.w3.org/2000/svg"
   xmlns:sodipodi="http://sodipodi.sourceforge.net/DTD/sodipodi-0.dtd"
   xmlns:inkscape="http://www.inkscape.org/namespaces/inkscape"
   viewBox="0 0 55.328185 55.328458"
   version="1.1"
   id="svg6"
   sodipodi:docname="biscuit-symbol-white.svg"
   width="55.328186"
   height="55.328457"
   inkscape:version="0.92.4 (unknown)">
  <metadata
     id="metadata12">
    <rdf:RDF>
      <cc:Work
         rdf:about="">
        <dc:format>image/svg+xml</dc:format>
        <dc:type
           rdf:resource="http://purl.org/dc/dcmitype/StillImage" />
      </cc:Work>
    </rdf:RDF>
  </metadata>
  <defs
     id="defs10" />
  <sodipodi:namedview
     pagecolor="#ffffff"
     bordercolor="#666666"
     borderopacity="1"
     objecttolerance="10"
     gridtolerance="10"
     guidetolerance="10"
     inkscape:pageopacity="0"
     inkscape:pageshadow="2"
     inkscape:window-width="1393"
     inkscape:window-height="870"
     id="namedview8"
     showgrid="false"
     inkscape:zoom="1.2039955"
     inkscape:cx="-138.70489"
     inkscape:cy="27.664452"
     inkscape:window-x="0"
     inkscape:window-y="27"
     inkscape:window-maximized="0"
     inkscape:current-layer="svg6" />
  <g
     style="line-height:1.25;fill:#aa4400"
     id="g4"
     transform="translate(-5.1175389e-5,5.8183881e-6)">
    <path
       style="font-weight:700;font-size:9.92399979px;font-family:Baloo;-inkscape-font-specification:'Baloo Bold';letter-spacing:0;word-spacing:0;fill:#aa4400"
       d="M 39.386,0 C 38.732,0 38.066,0.068 37.401,0.205 34.554788,0.78836426 32.111699,2.5993611 30.726,5.153 28.44538,3.3534263 25.48611,2.6535965 22.641,3.241 19.794417,3.8240943 17.350915,5.6351257 15.965,8.189 13.685118,6.3895067 10.726479,5.6896531 7.882,6.277 2.545,7.375 -0.893,12.591 0.204,17.929 c 0.58420239,2.846416 2.3958737,5.289427 4.95,6.675 -1.7999368,2.280844 -2.5004524,5.240285 -1.914,8.086 0.5840996,2.845959 2.3958831,5.28839 4.95,6.673 -1.8002304,2.281091 -2.5007622,5.240965 -1.914,8.087 1.098,5.338 6.314,8.772 11.652,7.674 2.846008,-0.582526 5.289174,-2.392848 6.675,-4.946 2.280949,1.798871 5.240186,2.497961 8.085,1.91 2.846008,-0.582526 5.289174,-2.392848 6.675,-4.946 2.279944,1.799367 5.238523,2.499206 8.083,1.912 5.337,-1.097 8.776,-6.314 7.678,-11.651 -0.583547,-2.84696 -2.395361,-5.29053 -4.95,-6.676 1.800277,-2.280291 2.500846,-5.239594 1.914,-8.085 -0.583518,-2.845641 -2.394555,-5.288051 -4.948,-6.673 1.799867,-2.280866 2.499713,-5.240571 1.912,-8.086 C 48.092,3.213 43.977,-0.005 39.387,0 Z m -5.294,11.512 c 4.741331,0.138667 4.533331,7.250667 -0.208,7.112 -4.741331,-0.138667 -4.533331,-7.250667 0.208,-7.112 z m -18.058,5.056 c 4.741331,0.138667 4.533331,7.250667 -0.208,7.112 -4.741331,-0.138667 -4.533331,-7.250667 0.208,-7.112 z m 11.49,7.494 c 4.741331,0.138667 4.533331,7.250667 -0.208,7.112 -4.741331,-0.138 -4.534331,-7.25 0.207,-7.112 z m 11.49,7.456 c 4.819621,0.06561 4.605095,7.330881 -0.21,7.112 -4.664312,-0.212027 -4.458696,-7.175554 0.21,-7.112 z m -18.058,5.056 c 4.741331,0.14 4.531331,7.252 -0.21,7.112 -4.741331,-0.14 -4.531331,-7.252 0.21,-7.112 z"
       font-weight="700"
       aria-label="biscuit"
       font-size="9.924"
       letter-spacing="0"
       word-spacing="0"
       id="path2"
       inkscape:connector-curvature="0"
       sodipodi:nodetypes="scccccccccccccccccccccsssssssccccssssss" />
  </g>
</svg>
