<?xml version="1.0" encoding="UTF-8" standalone="no"?>
<!-- Created with Inkscape (http://www.inkscape.org/) -->

<svg
   xmlns:dc="http://purl.org/dc/elements/1.1/"
   xmlns:cc="http://creativecommons.org/ns#"
   xmlns:rdf="http://www.w3.org/1999/02/22-rdf-syntax-ns#"
   xmlns:svg="http://www.w3.org/2000/svg"
   xmlns="http://www.w3.org/2000/svg"
   xmlns:sodipodi="http://sodipodi.sourceforge.net/DTD/sodipodi-0.dtd"
   xmlns:inkscape="http://www.inkscape.org/namespaces/inkscape"
   width="263.10413mm"
   height="55.328487mm"
   viewBox="0 0 263.10413 55.328487"
   version="1.1"
   id="svg833"
   inkscape:version="0.92.4 (unknown)"
   sodipodi:docname="biscuit-logo-source.svg">
  <defs
     id="defs827" />
  <sodipodi:namedview
     id="base"
     pagecolor="#ffffff"
     bordercolor="#666666"
     borderopacity="1.0"
     inkscape:pageopacity="0.0"
     inkscape:pageshadow="2"
     inkscape:zoom="0.49497475"
     inkscape:cx="499.98083"
     inkscape:cy="95.080524"
     inkscape:document-units="mm"
     inkscape:current-layer="layer1"
     showgrid="false"
     inkscape:window-width="1920"
     inkscape:window-height="1016"
     inkscape:window-x="0"
     inkscape:window-y="27"
     inkscape:window-maximized="1" />
  <metadata
     id="metadata830">
    <rdf:RDF>
      <cc:Work
         rdf:about="">
        <dc:format>image/svg+xml</dc:format>
        <dc:type
           rdf:resource="http://purl.org/dc/dcmitype/StillImage" />
        <dc:title />
      </cc:Work>
    </rdf:RDF>
  </metadata>
  <g
     inkscape:label="Layer 1"
     inkscape:groupmode="layer"
     id="layer1"
     transform="translate(0,-241.67151)">
    <path
       d="m 39.386965,241.67177 c -0.65537,-7.6e-4 -1.319125,0.0676 -1.986222,0.20439 -2.96029,0.60849 -5.33355,2.48735 -6.675215,4.94846 -2.203987,-1.73194 -5.124458,-2.5212 -8.085022,-1.91245 -2.960844,0.60928 -5.333816,2.48734 -6.675217,4.94846 -2.203993,-1.73167 -5.122609,-2.52114 -8.0829163,-1.91212 -5.3373806,1.09758 -8.77582146,6.31415 -7.67825656,11.6518 0.60901679,2.96057 2.48945756,5.33388 4.95057706,6.67528 -1.7314164,2.20426 -2.5233374,5.12519 -1.9145774,8.08549 0.6090092,2.96084 2.489263,5.33149 4.9506394,6.67316 -1.732202,2.20398 -2.5236488,5.12677 -1.9146396,8.08761 1.0978293,5.33765 6.3142744,8.77159 11.6516624,7.67375 2.960308,-0.60902 5.333218,-2.48498 6.674874,-4.94582 2.204246,1.73194 5.124791,2.51882 8.085365,1.90981 2.960571,-0.60902 5.333473,-2.48471 6.675138,-4.94582 2.204001,1.73141 5.122609,2.52114 8.082653,1.91211 5.337652,-1.09783 8.776349,-6.31413 7.678521,-11.65178 -0.608994,-2.96137 -2.488922,-5.33413 -4.950571,-6.67555 1.732475,-2.20423 2.52358,-5.12439 1.91457,-8.08523 -0.608751,-2.96056 -2.487412,-5.33143 -4.948259,-6.67309 1.731939,-2.20398 2.521207,-5.12472 1.912189,-8.0853 -0.960499,-4.67054 -5.07555,-7.88809 -9.66502,-7.88341 z m -5.294495,11.51152 a 3.5573229,3.5575875 1.6859035 0 1 3.451664,3.6602 3.5573229,3.5575875 1.6859035 0 1 -3.660714,3.45138 3.5573229,3.5575875 1.6859035 0 1 -3.451116,-3.66071 3.5573229,3.5575875 1.6859035 0 1 3.660439,-3.45112 z m -18.058263,5.05574 a 3.5573229,3.5575875 1.6859035 0 1 3.451647,3.66072 3.5573229,3.5575875 1.6859035 0 1 -3.66044,3.45112 3.5573229,3.5575875 1.6859035 0 1 -3.451655,-3.66045 3.5573229,3.5575875 1.6859035 0 1 3.660713,-3.45138 z m 11.489646,7.49455 a 3.5573229,3.5575875 1.6859035 0 1 3.451124,3.66044 3.5573229,3.5575875 1.6859035 0 1 -3.660447,3.45139 3.5573229,3.5575875 1.6859035 0 1 -3.451379,-3.66072 3.5573229,3.5575875 1.6859035 0 1 3.660702,-3.45111 z m 11.490521,7.45592 a 3.5573229,3.5575875 1.6859035 0 1 3.451108,3.66097 3.5573229,3.5575875 1.6859035 0 1 -3.660439,3.45113 3.5573229,3.5575875 1.6859035 0 1 -3.451392,-3.66045 3.5573229,3.5575875 1.6859035 0 1 3.660715,-3.45138 z m -18.05828,5.05627 a 3.5573229,3.5575875 1.6859035 0 1 3.451125,3.66044 3.5573229,3.5575875 1.6859035 0 1 -3.66044,3.45112 3.5573229,3.5575875 1.6859035 0 1 -3.451126,-3.66044 3.5573229,3.5575875 1.6859035 0 1 3.660448,-3.45139 z"
       id="path2-3"
       inkscape:connector-curvature="0"
       style="fill:#000000;stroke-width:0.26458332" />
    <g
       id="g1925-5-7-6"
       transform="matrix(6.4657377,0,0,6.4657377,-235.16842,-192.32189)"
       style="fill:#000000;stroke-width:0.15466142">
      <text
         id="text1533-4-8-7"
         y="74.673317"
         x="46.391327"
         style="font-style:normal;font-weight:normal;font-size:9.92402077px;line-height:1.25;font-family:sans-serif;letter-spacing:0px;word-spacing:0px;fill:#000000;fill-opacity:1;stroke:none;stroke-width:0.04092082"
         xml:space="preserve"><tspan
           style="font-style:normal;font-variant:normal;font-weight:bold;font-stretch:normal;font-family:Baloo;-inkscape-font-specification:'Baloo Bold';fill:#000000;stroke-width:0.04092082"
           y="74.673317"
           x="46.391327"
           id="tspan1531-3-2-5"
           sodipodi:role="line">biscuit</tspan></text>
    </g>
  </g>
</svg>
